<svg width="35" height="20" viewBox="0 0 35 20" fill="none" xmlns="http://www.w3.org/2000/svg">
<rect width="35" height="20" rx="5" fill="#5CD85A"/>
<path d="M11.2305 6.92773L8.91016 14H7.04102L10.2109 5.46875H11.4004L11.2305 6.92773ZM13.1582 14L10.832 6.92773L10.6445 5.46875H11.8457L15.0332 14H13.1582ZM13.0527 10.8242V12.2012H8.54688V10.8242H13.0527ZM17.1836 9.01367V14H15.4961V7.66016H17.0781L17.1836 9.01367ZM16.9375 10.6074H16.4805C16.4805 10.1387 16.541 9.7168 16.6621 9.3418C16.7832 8.96289 16.9531 8.64062 17.1719 8.375C17.3906 8.10547 17.6504 7.90039 17.9512 7.75977C18.2559 7.61523 18.5957 7.54297 18.9707 7.54297C19.2676 7.54297 19.5391 7.58594 19.7852 7.67188C20.0312 7.75781 20.2422 7.89453 20.418 8.08203C20.5977 8.26953 20.7344 8.51758 20.8281 8.82617C20.9258 9.13477 20.9746 9.51172 20.9746 9.95703V14H19.2754V9.95117C19.2754 9.66992 19.2363 9.45117 19.1582 9.29492C19.0801 9.13867 18.9648 9.0293 18.8125 8.9668C18.6641 8.90039 18.4805 8.86719 18.2617 8.86719C18.0352 8.86719 17.8379 8.91211 17.6699 9.00195C17.5059 9.0918 17.3691 9.2168 17.2598 9.37695C17.1543 9.5332 17.0742 9.7168 17.0195 9.92773C16.9648 10.1387 16.9375 10.3652 16.9375 10.6074ZM25.6855 12.248C25.6855 12.127 25.6504 12.0176 25.5801 11.9199C25.5098 11.8223 25.3789 11.7324 25.1875 11.6504C25 11.5645 24.7285 11.4863 24.373 11.416C24.0527 11.3457 23.7539 11.2578 23.4766 11.1523C23.2031 11.043 22.9648 10.9121 22.7617 10.7598C22.5625 10.6074 22.4062 10.4277 22.293 10.2207C22.1797 10.0098 22.123 9.76953 22.123 9.5C22.123 9.23438 22.1797 8.98438 22.293 8.75C22.4102 8.51562 22.5762 8.30859 22.791 8.12891C23.0098 7.94531 23.2754 7.80273 23.5879 7.70117C23.9043 7.5957 24.2598 7.54297 24.6543 7.54297C25.2051 7.54297 25.6777 7.63086 26.0723 7.80664C26.4707 7.98242 26.7754 8.22461 26.9863 8.5332C27.2012 8.83789 27.3086 9.18555 27.3086 9.57617H25.6211C25.6211 9.41211 25.5859 9.26562 25.5156 9.13672C25.4492 9.00391 25.3438 8.90039 25.1992 8.82617C25.0586 8.74805 24.875 8.70898 24.6484 8.70898C24.4609 8.70898 24.2988 8.74219 24.1621 8.80859C24.0254 8.87109 23.9199 8.95703 23.8457 9.06641C23.7754 9.17188 23.7402 9.28906 23.7402 9.41797C23.7402 9.51562 23.7598 9.60352 23.7988 9.68164C23.8418 9.75586 23.9102 9.82422 24.0039 9.88672C24.0977 9.94922 24.2188 10.0078 24.3672 10.0625C24.5195 10.1133 24.707 10.1602 24.9297 10.2031C25.3867 10.2969 25.7949 10.4199 26.1543 10.5723C26.5137 10.7207 26.7988 10.9238 27.0098 11.1816C27.2207 11.4355 27.3262 11.7695 27.3262 12.1836C27.3262 12.4648 27.2637 12.7227 27.1387 12.957C27.0137 13.1914 26.834 13.3965 26.5996 13.5723C26.3652 13.7441 26.084 13.8789 25.7559 13.9766C25.4316 14.0703 25.0664 14.1172 24.6602 14.1172C24.0703 14.1172 23.5703 14.0117 23.1602 13.8008C22.7539 13.5898 22.4453 13.3223 22.2344 12.998C22.0273 12.6699 21.9238 12.334 21.9238 11.9902H23.5234C23.5312 12.2207 23.5898 12.4062 23.6992 12.5469C23.8125 12.6875 23.9551 12.7891 24.127 12.8516C24.3027 12.9141 24.4922 12.9453 24.6953 12.9453C24.9141 12.9453 25.0957 12.916 25.2402 12.8574C25.3848 12.7949 25.4941 12.7129 25.5684 12.6113C25.6465 12.5059 25.6855 12.3848 25.6855 12.248Z" fill="white"/>
</svg>
