<svg width="60" height="61" viewBox="0 0 60 61" fill="none" xmlns="http://www.w3.org/2000/svg">
<circle cx="30" cy="30.5" r="30" fill="#08313A"/>
<path d="M39.5934 28.9594L40.661 30.0035C41.113 30.4456 41.113 31.1605 40.661 31.5979L31.3175 40.7408C30.8655 41.1829 30.1345 41.1829 29.6873 40.7408L20.339 31.5979C19.887 31.1558 19.887 30.4409 20.339 30.0035L21.4066 28.9594C21.8634 28.5126 22.6088 28.5221 23.056 28.9783L28.5765 34.6455V21.1287C28.5765 20.5032 29.091 20 29.7306 20H31.2694C31.909 20 32.4235 20.5032 32.4235 21.1287V34.6455L37.944 28.9783C38.3912 28.5173 39.1366 28.5079 39.5934 28.9594Z" fill="#5CD85A"/>
</svg>
