<svg width="33" height="28" viewBox="0 0 33 28" fill="none" xmlns="http://www.w3.org/2000/svg">
<path d="M29.5449 0H3.29492C1.8457 0 0.669922 1.17578 0.669922 2.625V20.125C0.669922 21.5742 1.8457 22.75 3.29492 22.75H13.7949L12.9199 25.375H8.98242C8.25508 25.375 7.66992 25.9602 7.66992 26.6875C7.66992 27.4148 8.25508 28 8.98242 28H23.8574C24.5848 28 25.1699 27.4148 25.1699 26.6875C25.1699 25.9602 24.5848 25.375 23.8574 25.375H19.9199L19.0449 22.75H29.5449C30.9941 22.75 32.1699 21.5742 32.1699 20.125V2.625C32.1699 1.17578 30.9941 0 29.5449 0ZM28.6699 19.25H4.16992V3.5H28.6699V19.25Z" fill="#5CD85A"/>
</svg>
