<svg width="29" height="28" viewBox="0 0 29 28" fill="none" xmlns="http://www.w3.org/2000/svg">
<path d="M14.6699 28C18.383 28 21.9439 26.525 24.5694 23.8995C27.1949 21.274 28.6699 17.713 28.6699 14C28.6699 10.287 27.1949 6.72601 24.5694 4.10051C21.9439 1.475 18.383 0 14.6699 0C10.9569 0 7.39594 1.475 4.77043 4.10051C2.14492 6.72601 0.669922 10.287 0.669922 14C0.669922 17.713 2.14492 21.274 4.77043 23.8995C7.39594 26.525 10.9569 28 14.6699 28ZM20.8496 11.4297L13.8496 18.4297C13.3355 18.9438 12.5043 18.9438 11.9957 18.4297L8.4957 14.9297C7.98164 14.4156 7.98164 13.5844 8.4957 13.0758C9.00977 12.5672 9.84102 12.5617 10.3496 13.0758L12.9199 15.6461L18.9902 9.57031C19.5043 9.05625 20.3355 9.05625 20.8441 9.57031C21.3527 10.0844 21.3582 10.9156 20.8441 11.4242L20.8496 11.4297Z" fill="#5CD85A"/>
</svg>
