<svg width="70" height="70" viewBox="0 0 70 70" fill="none" xmlns="http://www.w3.org/2000/svg">
<rect width="70" height="70" rx="35" fill="white"/>
<g clip-path="url(#clip0_6_103)">
<path d="M26.36 24.0188V44.2969C26.36 44.9641 26.9014 45.5 27.5631 45.5C27.9076 45.5 28.2412 45.3523 28.4709 45.0898L32.9881 39.9219L36.1655 46.282C36.5975 47.1461 37.6475 47.4961 38.5115 47.0641C39.3756 46.632 39.7256 45.582 39.2936 44.718L36.1928 38.5H42.6514C43.3186 38.5 43.86 37.9586 43.86 37.2914C43.86 36.9469 43.7123 36.6187 43.4553 36.3891L28.4709 23.0727C28.2358 22.8648 27.9405 22.75 27.6287 22.75C26.9287 22.75 26.36 23.3188 26.36 24.0188Z" fill="#5CD85A"/>
</g>
<defs>
<clipPath id="clip0_6_103">
<rect width="17.5" height="28" fill="white" transform="translate(26.36 21)"/>
</clipPath>
</defs>
</svg>
