<svg width="28" height="29" viewBox="0 0 28 29" fill="none" xmlns="http://www.w3.org/2000/svg">
<g clip-path="url(#clip0_6_60)">
<path d="M25.375 14.5C25.375 11.4832 24.1766 8.58989 22.0433 6.45666C19.9101 4.32343 17.0168 3.125 14 3.125C10.9832 3.125 8.08989 4.32343 5.95666 6.45666C3.82343 8.58989 2.625 11.4832 2.625 14.5C2.625 17.5168 3.82343 20.4101 5.95666 22.5433C8.08989 24.6766 10.9832 25.875 14 25.875C17.0168 25.875 19.9101 24.6766 22.0433 22.5433C24.1766 20.4101 25.375 17.5168 25.375 14.5ZM0 14.5C0 10.787 1.475 7.22601 4.10051 4.60051C6.72601 1.975 10.287 0.5 14 0.5C17.713 0.5 21.274 1.975 23.8995 4.60051C26.525 7.22601 28 10.787 28 14.5C28 18.213 26.525 21.774 23.8995 24.3995C21.274 27.025 17.713 28.5 14 28.5C10.287 28.5 6.72601 27.025 4.10051 24.3995C1.475 21.774 0 18.213 0 14.5ZM16.7727 18.2789L8.88125 21.3141C7.82031 21.7242 6.77578 20.6797 7.18594 19.6188L10.2211 11.7273C10.4016 11.2625 10.7625 10.9016 11.2273 10.7211L19.1188 7.68594C20.1797 7.27578 21.2242 8.32031 20.8141 9.38125L17.7789 17.2727C17.6039 17.7375 17.2375 18.0984 16.7727 18.2789ZM15.75 14.5C15.75 14.0359 15.5656 13.5908 15.2374 13.2626C14.9092 12.9344 14.4641 12.75 14 12.75C13.5359 12.75 13.0908 12.9344 12.7626 13.2626C12.4344 13.5908 12.25 14.0359 12.25 14.5C12.25 14.9641 12.4344 15.4092 12.7626 15.7374C13.0908 16.0656 13.5359 16.25 14 16.25C14.4641 16.25 14.9092 16.0656 15.2374 15.7374C15.5656 15.4092 15.75 14.9641 15.75 14.5Z" fill="white"/>
</g>
<defs>
<clipPath id="clip0_6_60">
<rect width="28" height="28" fill="white" transform="translate(0 0.5)"/>
</clipPath>
</defs>
</svg>
