<svg width="36" height="28" viewBox="0 0 36 28" fill="none" xmlns="http://www.w3.org/2000/svg">
<path d="M34.3721 14.8258L28.0721 12.3648C27.8479 12.2773 27.3831 12.1625 26.8581 12.3648L20.5581 14.8258C19.9729 15.0555 19.5901 15.5914 19.5901 16.1875C19.5901 22.2906 23.3471 26.5125 26.8581 27.8852C27.3831 28.0875 27.8424 27.9727 28.0721 27.8852C30.8776 26.7914 35.3401 22.9961 35.3401 16.1875C35.3401 15.5914 34.9573 15.0555 34.3721 14.8258ZM27.4651 25.2875V14.9461L32.6877 16.9859C32.3815 21.7492 29.3573 24.3906 27.4651 25.2875ZM12.5901 14C16.4565 14 19.5901 10.8664 19.5901 7C19.5901 3.13359 16.4565 0 12.5901 0C8.72368 0 5.59009 3.13359 5.59009 7C5.59009 10.8664 8.72368 14 12.5901 14ZM17.8401 16.1875C17.8401 16.0508 17.8838 15.925 17.9002 15.7937C17.7635 15.7883 17.6323 15.75 17.4901 15.75H16.5768C15.3627 16.3078 14.012 16.625 12.5901 16.625C11.1682 16.625 9.8229 16.3078 8.60337 15.75H7.69009C3.63228 15.75 0.340088 19.0422 0.340088 23.1V25.375C0.340088 26.8242 1.51587 28 2.96509 28H22.2151C22.587 28 22.9424 27.918 23.2651 27.7812C20.312 25.4352 17.8401 21.3992 17.8401 16.1875Z" fill="#5CD85A"/>
</svg>
