<svg width="28" height="28" viewBox="0 0 28 28" fill="none" xmlns="http://www.w3.org/2000/svg">
<path d="M0.340088 3.78009V12.937C0.340088 13.9782 0.750463 14.9766 1.48546 15.7116L12.2655 26.4916C13.7967 28.0228 16.2773 28.0228 17.8086 26.4916L25.9855 18.3147C27.5167 16.7835 27.5167 14.3028 25.9855 12.7716L15.2055 1.99159C14.4705 1.25659 13.4721 0.846213 12.4308 0.846213H3.28009C1.65696 0.840088 0.340088 2.15696 0.340088 3.78009ZM7.20009 5.74009C7.71991 5.74009 8.21845 5.94659 8.58602 6.31416C8.95359 6.68173 9.16009 7.18026 9.16009 7.70009C9.16009 8.21991 8.95359 8.71844 8.58602 9.08602C8.21845 9.45359 7.71991 9.66009 7.20009 9.66009C6.68026 9.66009 6.18173 9.45359 5.81416 9.08602C5.44659 8.71844 5.24009 8.21991 5.24009 7.70009C5.24009 7.18026 5.44659 6.68173 5.81416 6.31416C6.18173 5.94659 6.68026 5.74009 7.20009 5.74009Z" fill="#5CD85A"/>
</svg>
