<svg width="70" height="71" viewBox="0 0 70 71" fill="none" xmlns="http://www.w3.org/2000/svg">
<rect y="0.5" width="70" height="70" rx="35" fill="white"/>
<path d="M25.5449 48C21.1973 48 17.6699 44.4727 17.6699 40.125C17.6699 36.6906 19.8684 33.7703 22.9309 32.693C22.9254 32.5453 22.9199 32.3977 22.9199 32.25C22.9199 27.4156 26.8355 23.5 31.6699 23.5C34.9129 23.5 37.7402 25.2609 39.2551 27.8859C40.0863 27.3281 41.0926 27 42.1699 27C45.0684 27 47.4199 29.3516 47.4199 32.25C47.4199 32.9172 47.2941 33.5516 47.0699 34.1422C50.2637 34.7875 52.6699 37.6148 52.6699 41C52.6699 44.8664 49.5363 48 45.6699 48H25.5449ZM29.8652 36.1328C29.3512 36.6469 29.3512 37.4781 29.8652 37.9867C30.3793 38.4953 31.2105 38.5008 31.7191 37.9867L33.852 35.8539V43.1875C33.852 43.9148 34.4371 44.5 35.1645 44.5C35.8918 44.5 36.477 43.9148 36.477 43.1875V35.8539L38.6098 37.9867C39.1238 38.5008 39.9551 38.5008 40.4637 37.9867C40.9723 37.4727 40.9777 36.6414 40.4637 36.1328L36.0887 31.7578C35.5746 31.2438 34.7434 31.2438 34.2348 31.7578L29.8598 36.1328H29.8652Z" fill="#5CD85A"/>
</svg>
