<svg width="70" height="71" viewBox="0 0 70 71" fill="none" xmlns="http://www.w3.org/2000/svg">
<rect y="0.5" width="70" height="70" rx="35" fill="white"/>
<g clip-path="url(#clip0_6_100)">
<path d="M35.2172 22C35.4702 22 35.7231 22.055 35.9541 22.1595L46.3083 26.553C47.5181 27.0644 48.4199 28.2577 48.4144 29.6984C48.3869 35.1532 46.1434 45.1335 36.6689 49.6701C35.7506 50.11 34.6838 50.11 33.7655 49.6701C24.2911 45.1335 22.0475 35.1532 22.02 29.6984C22.0145 28.2577 22.9164 27.0644 24.1261 26.553L34.4859 22.1595C34.7113 22.055 34.9643 22 35.2172 22ZM35.2172 25.6732V46.4588C42.8056 42.7855 44.8457 34.6528 44.8951 29.7753L35.2172 25.6732Z" fill="#5CD85A"/>
</g>
<defs>
<clipPath id="clip0_6_100">
<rect width="26.39" height="28" fill="white" transform="translate(22.02 22)"/>
</clipPath>
</defs>
</svg>
